<svg width="26" height="31" viewBox="0 0 26 31" fill="none" xmlns="http://www.w3.org/2000/svg">
<path d="M17.5194 5.64617C15.9836 7.18474 13.0701 6.7605 13.0701 6.7605C13.0701 6.7605 12.6466 3.84175 14.1824 2.30318C15.7182 0.764616 18.6317 1.18885 18.6317 1.18885C18.6317 1.18885 19.0552 4.1076 17.5194 5.64617Z" stroke="white" stroke-width="1.41844" stroke-linejoin="round"/>
<path d="M1.67932 18.2558C1.67932 22.9149 4.79205 28.2662 7.94161 29.3971C9.03354 29.7891 10.1622 29.2481 11.1005 28.5743C11.8123 28.0632 12.6743 27.5752 13.3704 27.5752C14.0666 27.5752 14.9286 28.0632 15.6404 28.5743C16.5787 29.2481 17.7073 29.7891 18.7993 29.3971C21.0373 28.5935 23.2567 25.6589 24.3539 22.356C22.2293 21.7463 20.6774 19.8204 20.6774 17.539C20.6774 15.4488 21.9799 13.6571 23.8321 12.9025C22.6388 10.7793 20.6886 9.65332 18.4853 9.65332C17.3455 9.65332 16.298 10.1136 15.4517 10.6654C14.1011 11.546 12.6397 11.546 11.2891 10.6654C10.4429 10.1136 9.39538 9.65332 8.25557 9.65332C4.62361 9.65332 1.67932 12.713 1.67932 18.2558Z" stroke="white" stroke-width="1.41844" stroke-linejoin="round"/>
</svg>
