<svg width="91" height="31" viewBox="0 0 91 31" fill="none" xmlns="http://www.w3.org/2000/svg">
<path d="M46.9735 8.04118C46.6152 7.14059 46.1084 6.3733 45.4536 5.74002C44.7981 5.10675 43.9976 4.61392 43.053 4.26297C42.1077 3.91203 41.0478 3.73584 39.8745 3.73584H32.6266V18.3448H39.8745C41.0478 18.3448 42.1077 18.1732 43.053 17.8301C43.9976 17.4863 44.7981 16.9982 45.4536 16.3642C46.1084 15.7309 46.6155 14.9643 46.9735 14.063C47.3318 13.1631 47.5116 12.1557 47.5116 11.0403C47.5116 9.92492 47.3318 8.94178 46.9735 8.04118ZM44.0815 13.1238C43.8524 13.7049 43.5326 14.1892 43.1215 14.578C42.7097 14.9672 42.2215 15.2534 41.6577 15.4364C41.0939 15.6198 40.4765 15.7116 39.806 15.7116H35.6899V6.36865H39.806C40.4765 6.36865 41.0939 6.46443 41.6577 6.65491C42.2215 6.84611 42.7097 7.13201 43.1215 7.51333C43.5326 7.89537 43.8527 8.38033 44.0815 8.96751C44.3106 9.55539 44.4241 10.2466 44.4241 11.0396C44.4241 11.8326 44.3102 12.5438 44.0815 13.1231V13.1238Z" fill="white"/>
<path d="M57.2285 3.73584H53.3413L47.8767 18.3448H51.0777L52.4038 14.7499H58.1892L59.4921 18.3448H62.7167L57.2285 3.73584ZM53.2042 12.4605L55.2847 6.78178L57.3652 12.4605H53.2039H53.2042Z" fill="white"/>
<path d="M71.9083 3.73584L68.0896 10.3305L64.2258 3.73584H60.7497L66.4434 13.3307V18.3448H69.4842V13.3765L75.2924 3.73584H71.9083Z" fill="white"/>
<path d="M87.9138 6.36936V3.73584H76.9383V18.3448H80.0023V12.1171H86.9075V9.6669H80.0023V6.36901H87.9135L87.9138 6.36936Z" fill="white"/>
<path d="M37.7055 25.0326C37.6487 24.865 37.562 24.7207 37.446 24.5984C37.3301 24.4758 37.1837 24.3776 37.0085 24.3029C36.8326 24.2289 36.6285 24.1853 36.3965 24.1735C36.6224 24.1617 36.8083 24.111 36.955 24.0213C37.1006 23.9316 37.2144 23.8286 37.2944 23.7125C37.3747 23.5963 37.4282 23.4738 37.455 23.3458C37.4821 23.2172 37.4953 23.1057 37.4953 23.0099C37.4953 22.7118 37.436 22.4617 37.3168 22.259C37.1977 22.0564 37.0414 21.8949 36.8472 21.7755C36.6542 21.6561 36.4361 21.5711 36.1956 21.5203C35.9544 21.4696 35.7081 21.4438 35.4583 21.4438H32.6263V27.153H35.6903C35.9526 27.153 36.2106 27.1287 36.4636 27.0811C36.7166 27.0336 36.9418 26.9518 37.1381 26.8356C37.335 26.7188 37.4924 26.5597 37.6116 26.3567C37.7308 26.1541 37.7908 25.8943 37.7908 25.5776C37.7908 25.3811 37.7618 25.1995 37.7058 25.0326H37.7055ZM33.8228 22.4735H35.3959C35.5268 22.4735 35.6489 22.482 35.762 22.4999C35.8748 22.5178 35.974 22.5506 36.0571 22.5989C36.1403 22.6464 36.2059 22.7136 36.2534 22.8001C36.3009 22.8866 36.3251 22.9981 36.3251 23.1353C36.3251 23.2726 36.3041 23.3769 36.2627 23.4666C36.2206 23.5556 36.1624 23.6271 36.0882 23.681C36.0136 23.735 35.923 23.7722 35.8155 23.7925C35.7081 23.8136 35.5921 23.8243 35.4665 23.8243H33.8228V22.4731V22.4735ZM36.5171 25.811C36.454 25.9007 36.369 25.9693 36.2623 26.0169C36.1549 26.0644 36.0357 26.0941 35.9048 26.1059C35.7731 26.1184 35.6392 26.1237 35.5022 26.1237H33.8225V24.7192H35.4662C35.6032 24.7192 35.7402 24.7278 35.8773 24.7457C36.0143 24.7635 36.1381 24.7978 36.2488 24.8486C36.3587 24.8993 36.4465 24.9712 36.5118 25.0637C36.5771 25.1556 36.6099 25.2828 36.6099 25.4436C36.6099 25.6045 36.5789 25.7213 36.5164 25.811H36.5171Z" fill="white"/>
<path d="M46.7693 23.0947C46.6027 22.7345 46.3775 22.4239 46.0949 22.1644C45.8122 21.9046 45.4814 21.7052 45.1028 21.5648C44.7245 21.425 44.3209 21.355 43.8927 21.355C43.4645 21.355 43.0587 21.4261 42.6772 21.5694C42.2958 21.7131 41.9624 21.9125 41.6766 22.1691C41.3908 22.4257 41.1642 22.7345 40.9975 23.0947C40.8308 23.4557 40.7477 23.8573 40.7477 24.2987C40.7477 24.7401 40.8308 25.1411 40.9975 25.502C41.1642 25.863 41.3908 26.1717 41.6766 26.4283C41.9624 26.6849 42.2958 26.8843 42.6772 27.0273C43.0587 27.171 43.4638 27.2424 43.8927 27.2424C44.3216 27.2424 44.7242 27.1724 45.1028 27.0319C45.4811 26.8915 45.8137 26.6921 46.0995 26.4323C46.3854 26.1735 46.6102 25.863 46.774 25.502C46.9374 25.1411 47.0202 24.7401 47.0202 24.2987C47.0202 23.8573 46.936 23.4557 46.7693 23.0947ZM45.6659 25.0592C45.5678 25.2915 45.434 25.4927 45.2641 25.6628C45.0942 25.8329 44.8919 25.9662 44.6567 26.0613C44.4208 26.1571 44.1661 26.2046 43.8927 26.2046C43.6193 26.2046 43.3624 26.1571 43.124 26.0613C42.8856 25.9662 42.6801 25.8329 42.5074 25.6628C42.3346 25.4927 42.199 25.2915 42.1009 25.0592C42.0028 24.8269 41.9539 24.5735 41.9539 24.2991C41.9539 24.0246 42.0028 23.7712 42.1009 23.5378C42.199 23.3056 42.3346 23.1026 42.5074 22.9296C42.6801 22.7566 42.8856 22.6222 43.124 22.5272C43.3624 22.4321 43.6186 22.3835 43.8927 22.3835C44.1668 22.3835 44.4205 22.4318 44.6567 22.5272C44.8919 22.6222 45.096 22.7566 45.2687 22.9296C45.4408 23.1026 45.5756 23.307 45.6706 23.5425C45.7655 23.778 45.8137 24.03 45.8137 24.2991C45.8137 24.5682 45.7637 24.8269 45.6656 25.0592H45.6659Z" fill="white"/>
<path d="M56.0084 23.0947C55.8411 22.7345 55.6159 22.4239 55.3333 22.1644C55.0506 21.9046 54.7198 21.7052 54.3419 21.5648C53.9636 21.425 53.56 21.355 53.1311 21.355C52.7021 21.355 52.2971 21.4261 51.9156 21.5694C51.5349 21.7131 51.2008 21.9125 50.915 22.1691C50.6291 22.4257 50.4025 22.7345 50.2359 23.0947C50.0692 23.4557 49.9861 23.8573 49.9861 24.2987C49.9861 24.7401 50.0692 25.1411 50.2359 25.502C50.4025 25.863 50.6291 26.1717 50.915 26.4283C51.2008 26.6849 51.5349 26.8843 51.9156 27.0273C52.2971 27.171 52.7021 27.2424 53.1311 27.2424C53.56 27.2424 53.9636 27.1724 54.3419 27.0319C54.7195 26.8915 55.0521 26.6921 55.3379 26.4323C55.6238 26.1735 55.8486 25.863 56.0124 25.502C56.1765 25.1411 56.2586 24.7401 56.2586 24.2987C56.2586 23.8573 56.1755 23.4557 56.0088 23.0947H56.0084ZM54.9043 25.0592C54.8062 25.2915 54.6724 25.4927 54.5025 25.6628C54.3326 25.8329 54.1303 25.9662 53.8951 26.0613C53.66 26.1571 53.4055 26.2046 53.1311 26.2046C52.8567 26.2046 52.6008 26.1571 52.3624 26.0613C52.124 25.9662 51.9185 25.8329 51.7458 25.6628C51.573 25.4927 51.4374 25.2915 51.3393 25.0592C51.2412 24.8269 51.1923 24.5735 51.1923 24.2991C51.1923 24.0246 51.2412 23.7712 51.3393 23.5378C51.4374 23.3056 51.573 23.1026 51.7458 22.9296C51.9185 22.7566 52.124 22.6222 52.3624 22.5272C52.6008 22.4321 52.857 22.3835 53.1311 22.3835C53.4052 22.3835 53.66 22.4318 53.8951 22.5272C54.1303 22.6222 54.3344 22.7566 54.5071 22.9296C54.6799 23.1026 54.814 23.307 54.909 23.5425C55.0039 23.778 55.0524 24.03 55.0524 24.2991C55.0524 24.5682 55.0035 24.8269 54.9043 25.0592Z" fill="white"/>
<path d="M62.4234 24.003L65.0142 21.4438H63.4957L60.7975 24.1013V21.4531L59.5999 21.4438V27.153H60.7975V25.6052L61.5747 24.8354L63.5136 27.153H65.032L62.4234 24.0034V24.003Z" fill="white"/>
<path d="M68.1863 21.4438V27.153H69.3832V21.4438H68.1863Z" fill="white"/>
<path d="M77.1567 21.4438V25.2196L74.2615 21.4438H73.0995V27.153H74.2971V23.3858L77.1923 27.153H78.3532V21.4438H77.1563H77.1567Z" fill="white"/>
<path d="M84.0448 23.9673V24.8172H86.8597L86.8326 25.1846C86.7733 25.3336 86.6823 25.469 86.5599 25.5916C86.4375 25.7142 86.2919 25.8185 86.1224 25.9043C85.9525 25.9908 85.7634 26.058 85.5546 26.1055C85.3459 26.1538 85.1232 26.1773 84.8848 26.1773C84.5751 26.1773 84.2978 26.1298 84.054 26.0348C83.8096 25.939 83.6008 25.8046 83.4281 25.6316C83.2554 25.4594 83.1212 25.2557 83.0263 25.0234C82.9314 24.7911 82.8807 24.5431 82.8746 24.2811C82.8746 24.0066 82.9189 23.7565 83.0084 23.5295C83.098 23.3026 83.2272 23.1078 83.3971 22.9431C83.5669 22.7794 83.7725 22.6515 84.0137 22.5585C84.255 22.4656 84.5276 22.4199 84.8313 22.4199C85.0579 22.4199 85.2734 22.4395 85.479 22.4785C85.6845 22.5167 85.8708 22.5782 86.0371 22.6618C86.2038 22.7454 86.3469 22.8512 86.4661 22.9792C86.5852 23.1078 86.677 23.2615 86.7426 23.4402L87.8507 23.2883C87.7968 22.9663 87.6887 22.6861 87.5245 22.447C87.3611 22.209 87.1509 22.0071 86.8946 21.8434C86.6384 21.6797 86.344 21.5572 86.01 21.4768C85.6767 21.3956 85.3163 21.356 84.9291 21.356C84.4409 21.356 83.9969 21.4317 83.5976 21.5836C83.199 21.7355 82.8593 21.9446 82.5791 22.2097C82.2997 22.4756 82.0824 22.7862 81.9275 23.1407C81.7726 23.4956 81.6916 23.8762 81.6863 24.2815C81.6916 24.7282 81.7726 25.1345 81.9275 25.498C82.0824 25.8621 82.3011 26.1741 82.5838 26.4329C82.8664 26.6927 83.2076 26.8921 83.6069 27.0326C84.0055 27.173 84.4494 27.2431 84.9383 27.2431C85.4272 27.2431 85.8105 27.1566 86.1267 26.9832C86.4421 26.8103 86.6866 26.5894 86.8593 26.321V27.153H87.9135V23.9673H84.0441H84.0448Z" fill="white"/>
<path d="M9.36975 20.5132L13.3987 27.3795C13.4408 27.4513 13.3891 27.5421 13.3056 27.5421H3.91907C3.4498 27.5421 3.06939 27.1611 3.06939 26.6912V16.8232L9.04643 20.1951C9.18025 20.2705 9.29159 20.3802 9.36939 20.5128L9.36975 20.5132Z" fill="#FE055B"/>
<path d="M9.04643 10.7842L3.06939 14.1561V4.28744C3.06939 3.81749 3.4498 3.43652 3.91907 3.43652H13.3056C13.3891 3.43652 13.4408 3.5273 13.3987 3.59913L9.36975 10.4665C9.29195 10.5991 9.18061 10.7088 9.04679 10.7842H9.04643Z" fill="#531C92"/>
<path d="M26.7434 10.5398C27.334 12.0265 27.6302 13.6758 27.6302 15.4898L19.2883 10.7842C19.1545 10.7088 19.0431 10.5991 18.9653 10.4665L14.9364 3.59913C14.8943 3.5273 14.946 3.43652 15.0295 3.43652C16.9666 3.43652 18.7137 3.72707 20.2736 4.30567C21.8323 4.88534 23.1538 5.69802 24.2354 6.74335C25.316 7.78868 26.1525 9.05416 26.7438 10.5398H26.7434Z" fill="#FE055B"/>
<path d="M27.6302 15.4896C27.6302 17.3287 27.334 18.9905 26.7434 20.4772C26.1518 21.9628 25.3153 23.2294 24.2351 24.2736C23.1534 25.32 21.8323 26.1252 20.2732 26.6924C18.7134 27.2585 16.9658 27.5415 15.0292 27.5415C14.9457 27.5415 14.8939 27.4507 14.936 27.3789L18.965 20.5126C19.0428 20.38 19.1541 20.2703 19.2879 20.1949L27.6299 15.4893L27.6302 15.4896Z" fill="#531C92"/>
<path d="M14.4271 9.317L15.7843 11.6292H12.5518L13.9076 9.317C14.0235 9.11829 14.3108 9.11829 14.4268 9.317H14.4271Z" fill="#0EB1FD"/>
<path d="M12.7442 19.3496C12.7435 19.3464 12.7428 19.3424 12.7417 19.3396C12.9262 19.2803 13.1107 19.2209 13.2952 19.1627C13.9329 18.959 14.5699 18.7556 15.2083 18.5537C15.2544 18.5391 15.269 18.5187 15.269 18.4694C15.2683 16.5745 15.2683 14.6794 15.2697 12.7845C15.2697 12.7306 15.254 12.7073 15.2037 12.6877C14.313 12.3478 13.4237 12.0055 12.5337 11.6638C12.5329 11.6638 12.5322 11.6631 12.5312 11.6631L11.7446 13.0043C11.7175 13.0504 11.6786 13.0887 11.6326 13.1144L7.88628 15.2269C7.68144 15.3423 7.68144 15.6379 7.88628 15.7533L11.6326 17.8657C11.6786 17.8922 11.7175 17.9304 11.7446 17.9758L13.9072 21.6618C14.0232 21.8605 14.3105 21.8605 14.4264 21.6618L15.7836 19.3496H12.7435H12.7442ZM14.3668 15.1901C14.536 15.1886 14.6705 15.3219 14.6705 15.4903C14.6713 15.6564 14.5389 15.7905 14.3747 15.7919C14.2055 15.7944 14.071 15.66 14.0703 15.4917C14.0703 15.3248 14.2013 15.1915 14.3668 15.1901Z" fill="#0EB1FD"/>
<path d="M20.4477 15.7528L16.7021 17.8653C16.6561 17.8918 16.6172 17.93 16.5908 17.9754L15.8564 19.2262V11.7534L16.5908 13.0042C16.6172 13.0503 16.6561 13.0886 16.7028 13.1143L20.4474 15.2268C20.6522 15.3422 20.6522 15.6378 20.4474 15.7532L20.4477 15.7528Z" fill="#0EB1FD"/>
<path d="M12.478 11.6294H12.5519L12.5315 11.663C12.513 11.6551 12.494 11.6458 12.4776 11.6294H12.478Z" fill="white"/>
<path d="M15.8567 11.6294V11.7534L15.7843 11.6294H15.8567Z" fill="white"/>
<path d="M15.7843 19.3494L15.8567 19.2261V19.3494H15.7843Z" fill="white"/>
</svg>
