<svg width="15" height="14" viewBox="0 0 15 14" fill="none" xmlns="http://www.w3.org/2000/svg">
<g clip-path="url(#clip0_1_335)">
<path d="M1.62433 2.21259C1.26641 2.21259 0.972321 2.50711 0.972321 2.86503V6.78135C0.972321 7.38039 1.46095 7.87072 2.05999 7.87072H12.9401C13.5392 7.87072 14.0295 7.38039 14.0295 6.78135V2.86503C14.0295 2.50711 13.7333 2.21259 13.3754 2.21259H1.62433ZM2.49523 3.51705H4.23662C4.29351 3.51829 4.34765 3.54176 4.38745 3.58243C4.42724 3.62311 4.44953 3.67776 4.44953 3.73467C4.44953 3.79157 4.42724 3.8462 4.38745 3.88688C4.34765 3.92756 4.29351 3.95105 4.23662 3.95229H2.49523C2.43834 3.95105 2.3842 3.92756 2.3444 3.88688C2.30461 3.8462 2.28232 3.79157 2.28232 3.73467C2.28232 3.67776 2.30461 3.62311 2.3444 3.58243C2.3842 3.54176 2.43834 3.51829 2.49523 3.51705V3.51705ZM5.10539 3.51705H5.54106C5.59796 3.51829 5.6521 3.54176 5.69189 3.58243C5.73169 3.62311 5.75397 3.67776 5.75397 3.73467C5.75397 3.79157 5.73169 3.8462 5.69189 3.88688C5.6521 3.92756 5.59796 3.95105 5.54106 3.95229H5.10539C5.0485 3.95105 4.99436 3.92756 4.95457 3.88688C4.91477 3.8462 4.89249 3.79157 4.89249 3.73467C4.89249 3.67776 4.91477 3.62311 4.95457 3.58243C4.99436 3.54176 5.0485 3.51829 5.10539 3.51705V3.51705ZM2.49523 6.12933H12.5049C12.6292 6.12933 12.7234 6.22348 12.7234 6.34781V7.43547H2.27677V6.34781C2.27677 6.22348 2.3709 6.12933 2.49523 6.12933V6.12933ZM2.91942 6.56458C2.61821 6.57979 2.64051 7.01505 2.93044 6.99982H12.0696C12.3599 6.99982 12.3599 6.56458 12.0696 6.56458H2.91942ZM4.0156 8.74247C3.96436 8.74164 3.91313 8.75933 3.87363 8.8007C3.40426 9.29218 3.58551 9.9698 3.83029 10.375C4.09274 10.8655 4.05598 11.1735 3.87363 11.4096C3.66087 11.6851 4.00639 11.898 4.16436 11.7326C4.63374 11.2411 4.45249 10.5635 4.20771 10.1583C3.94527 9.66779 3.98201 9.35984 4.16436 9.12375C4.32394 8.91712 4.1693 8.74544 4.0156 8.74247V8.74247ZM5.75656 8.74247C5.70532 8.74164 5.65408 8.75933 5.6146 8.8007C5.14521 9.29218 5.32647 9.9698 5.57125 10.375C5.83369 10.8655 5.79694 11.1735 5.6146 11.4096C5.40182 11.6851 5.74736 11.898 5.90533 11.7326C6.3747 11.2411 6.19345 10.5635 5.94867 10.1583C5.68622 9.66779 5.72298 9.35984 5.90533 9.12375C6.06489 8.91712 5.91026 8.74544 5.75656 8.74247V8.74247ZM7.49751 8.74247C7.44619 8.74164 7.39505 8.75933 7.35556 8.8007C6.88617 9.29218 7.06743 9.9698 7.31221 10.375C7.57466 10.8655 7.5379 11.1735 7.35556 11.4096C7.14279 11.6851 7.48831 11.898 7.64628 11.7326C8.11566 11.2411 7.93441 10.5635 7.68963 10.1583C7.42718 9.66779 7.46394 9.35984 7.64628 9.12375C7.80585 8.91712 7.65121 8.74544 7.49751 8.74247V8.74247ZM9.23848 8.74247C9.18715 8.74164 9.13601 8.75933 9.09651 8.8007C8.62714 9.29218 8.80839 9.9698 9.05317 10.375C9.31562 10.8655 9.27886 11.1735 9.09651 11.4096C8.88375 11.6851 9.22927 11.898 9.38724 11.7326C9.85662 11.2411 9.67536 10.5635 9.43059 10.1583C9.16814 9.66778 9.20489 9.35984 9.38724 9.12375C9.54681 8.91712 9.39218 8.74544 9.23848 8.74247V8.74247ZM10.9794 8.74247C10.9281 8.74164 10.877 8.75933 10.8375 8.8007C10.3681 9.29218 10.5493 9.9698 10.7941 10.375C11.0566 10.8655 11.0198 11.1735 10.8375 11.4096C10.6247 11.6851 10.9702 11.898 11.1282 11.7326C11.5976 11.2411 11.4163 10.5635 11.1716 10.1583C10.9091 9.66778 10.9459 9.35984 11.1282 9.12375C11.2878 8.91712 11.1331 8.74544 10.9794 8.74247V8.74247Z" fill="#8B939F"/>
</g>
<defs>
<clipPath id="clip0_1_335">
<rect width="13.9277" height="13.9277" fill="white" transform="translate(0.536163 0.0361328)"/>
</clipPath>
</defs>
</svg>
