<svg width="25" height="25" viewBox="0 0 25 25" fill="none" xmlns="http://www.w3.org/2000/svg">
<path d="M2.5 16.4901C2.5 16.4901 4.29534 15.74 7.5 15.74C12.5 15.74 16.5 18.74 22.5 18.74" stroke="#7D7D7D" stroke-linecap="round" stroke-linejoin="round"/>
<path d="M2.5 21.74H22.5" stroke="#7D7D7D" stroke-linecap="round" stroke-linejoin="round"/>
<path d="M13.094 3.9676C10.2484 4.78367 8.39871 7.59223 8.5043 10.615C8.52623 11.2429 8.53719 11.5568 8.80546 11.6956C9.07373 11.8344 9.35218 11.6377 9.90908 11.2441L11.1506 10.3668C11.3371 10.235 11.5585 10.1715 11.7815 10.1859L14.6977 10.3732L17.1357 8.65041C17.3222 8.51864 17.5435 8.45516 17.7666 8.46949L19.2879 8.56722C19.9407 8.60915 20.2671 8.63012 20.4291 8.37882C20.5912 8.12752 20.4594 7.85582 20.1959 7.31241C18.8856 4.60988 15.9553 3.14706 13.094 3.9676Z" stroke="#7D7D7D" stroke-linecap="round" stroke-linejoin="round"/>
<path d="M15 10.24L17 17.74M12.7857 3.73999L12.5 2.73999" stroke="#7D7D7D" stroke-linecap="round" stroke-linejoin="round"/>
</svg>
