<svg width="15" height="14" viewBox="0 0 15 14" fill="none" xmlns="http://www.w3.org/2000/svg">
<g clip-path="url(#clip0_1_339)">
<path d="M5.19321 5.77844H10.2064V8.24927H5.19321V5.77844Z" fill="#8B939F"/>
<path d="M13.9357 5.10651H13.5879V8.75015H13.9357C14.3376 8.74965 14.6634 8.42397 14.6638 8.02189V5.83451C14.6633 5.43256 14.3375 5.10688 13.9357 5.10651Z" fill="#8B939F"/>
<path d="M12.2237 3.56586H10.8425V10.4621H12.2237C12.6257 10.4616 12.9515 10.1359 12.9519 9.73399V4.29399C12.9515 3.89204 12.6257 3.56635 12.2237 3.56586Z" fill="#8B939F"/>
<path d="M2.44815 4.29399V9.73399C2.44852 10.1359 2.77433 10.4618 3.17628 10.4621H4.55752V3.56586H3.17628C2.77433 3.56635 2.44852 3.89204 2.44815 4.29399Z" fill="#8B939F"/>
<path d="M0.736084 5.83464V8.02189C0.736457 8.42397 1.06227 8.74965 1.46422 8.75015H1.81201V5.10651H1.46422C1.06227 5.10688 0.736581 5.43269 0.736084 5.83464Z" fill="#8B939F"/>
</g>
<defs>
<clipPath id="clip0_1_339">
<rect width="13.9277" height="13.9277" fill="white" transform="translate(0.736176 0.0361328)"/>
</clipPath>
</defs>
</svg>
