<svg width="18" height="18" viewBox="0 0 18 18" fill="none" xmlns="http://www.w3.org/2000/svg">
<path d="M12.9583 15.4691V16.6566" stroke="#7D7D7D" stroke-linecap="round" stroke-linejoin="round"/>
<path d="M5.04166 15.4691V16.6566" stroke="#7D7D7D" stroke-linecap="round" stroke-linejoin="round"/>
<path d="M2.66666 4.609C2.66666 4.10285 2.66666 3.84977 2.8043 3.54159C2.94194 3.23342 3.08171 3.10817 3.36124 2.85766C4.2772 2.03681 6.11855 0.823364 8.99999 0.823364C11.8814 0.823364 13.7228 2.03681 14.6387 2.85766C14.9183 3.10817 15.058 3.23342 15.1957 3.54159C15.3333 3.84977 15.3333 4.10285 15.3333 4.609V10.3234C15.3333 12.5625 15.3333 13.6821 14.6377 14.3777C13.9421 15.0734 12.8225 15.0734 10.5833 15.0734H7.41666C5.17748 15.0734 4.0579 15.0734 3.36228 14.3777C2.66666 13.6821 2.66666 12.5625 2.66666 10.3234V4.609Z" stroke="#7D7D7D" stroke-linejoin="round"/>
<path d="M2.66666 10.3234C2.66666 10.3234 5.62221 11.115 8.99999 11.115C12.3778 11.115 15.3333 10.3234 15.3333 10.3234" stroke="#7D7D7D" stroke-linecap="round" stroke-linejoin="round"/>
<path d="M3.0625 13.0941H4.25" stroke="#7D7D7D" stroke-width="1.5" stroke-linecap="round" stroke-linejoin="round"/>
<path d="M13.75 13.0941H14.9375" stroke="#7D7D7D" stroke-width="1.5" stroke-linecap="round" stroke-linejoin="round"/>
<path d="M8.20834 13.0941L9.79168 13.0941" stroke="#7D7D7D" stroke-width="1.5" stroke-linecap="round" stroke-linejoin="round"/>
<path d="M2.66666 3.98999L15.3333 3.98999" stroke="#7D7D7D" stroke-linejoin="round"/>
<path d="M1.08334 6.36499L1.08334 7.15666" stroke="#7D7D7D" stroke-linecap="round" stroke-linejoin="round"/>
<path d="M16.9167 6.36499L16.9167 7.15666" stroke="#7D7D7D" stroke-linecap="round" stroke-linejoin="round"/>
</svg>
