<svg width="13" height="12" viewBox="0 0 13 12" fill="none" xmlns="http://www.w3.org/2000/svg">
<path opacity="0.4" d="M5.48368 1.40999L2.01868 4.18498C1.62868 4.49498 1.37868 5.14999 1.46368 5.63999L2.12868 9.61998C2.24868 10.33 2.92868 10.905 3.64868 10.905H9.24868C9.96368 10.905 10.6487 10.325 10.7687 9.61998L11.4337 5.63999C11.5137 5.14999 11.2637 4.49498 10.8787 4.18498L7.41368 1.41498C6.87868 0.98498 6.01368 0.984991 5.48368 1.40999Z" fill="#292D32"/>
<path d="M6.44867 7.75C7.13903 7.75 7.69867 7.19036 7.69867 6.5C7.69867 5.80964 7.13903 5.25 6.44867 5.25C5.75831 5.25 5.19867 5.80964 5.19867 6.5C5.19867 7.19036 5.75831 7.75 6.44867 7.75Z" fill="#292D32"/>
</svg>
