<svg width="13" height="14" viewBox="0 0 13 14" fill="none" xmlns="http://www.w3.org/2000/svg">
<path d="M11.921 12.0428C11.921 12.2496 11.7495 12.421 11.5428 12.421H1.45722C1.25046 12.421 1.07901 12.2496 1.07901 12.0428C1.07901 11.831 1.25046 11.6646 1.45722 11.6646H11.5428C11.7495 11.6646 11.921 11.831 11.921 12.0428Z" fill="#292D32"/>
<path opacity="0.4" d="M11.0385 5.98136V11.6646H1.93628L1.96149 5.97631C1.96149 5.6687 2.10269 5.37625 2.34979 5.18462L5.87974 2.44135C6.24282 2.15391 6.75718 2.15391 7.12026 2.44135L10.6502 5.18462C10.8973 5.37625 11.0385 5.66871 11.0385 5.98136Z" fill="#292D32"/>
<path d="M7.25642 5.10896H5.74358C5.53683 5.10896 5.36537 4.9375 5.36537 4.73075C5.36537 4.52399 5.53683 4.35254 5.74358 4.35254H7.25642C7.46317 4.35254 7.63462 4.52399 7.63462 4.73075C7.63462 4.9375 7.46317 5.10896 7.25642 5.10896Z" fill="#292D32"/>
<path d="M8.26497 6.49573H4.73502C4.31647 6.49573 3.97861 6.83359 3.97861 7.25214V12.0428H9.02139V7.25214C9.02139 6.83359 8.68352 6.49573 8.26497 6.49573ZM5.86965 9.89961C5.86965 10.1064 5.6982 10.2778 5.49144 10.2778C5.28469 10.2778 5.11323 10.1064 5.11323 9.89961V9.14319C5.11323 8.93643 5.28469 8.76498 5.49144 8.76498C5.6982 8.76498 5.86965 8.93643 5.86965 9.14319V9.89961Z" fill="#292D32"/>
</svg>
