<svg width="19" height="19" viewBox="0 0 19 19" fill="none" xmlns="http://www.w3.org/2000/svg">
<path d="M2.375 8.98999C2.375 11.1113 2.375 12.172 3.03401 12.831C3.69302 13.49 4.75368 13.49 6.875 13.49H12.125C14.2463 13.49 15.307 13.49 15.966 12.831C16.625 12.172 16.625 11.1113 16.625 8.98999V6.73999C16.625 4.61867 16.625 3.55801 15.966 2.899C15.307 2.23999 14.2463 2.23999 12.125 2.23999H6.875C4.75368 2.23999 3.69302 2.23999 3.03401 2.899C2.375 3.55801 2.375 4.61867 2.375 6.73999V8.98999Z" stroke="#626262" stroke-width="1.125"/>
<path d="M8.9375 17.24C8.9375 17.5507 9.18934 17.8025 9.5 17.8025C9.81066 17.8025 10.0625 17.5507 10.0625 17.24L8.9375 17.24ZM9.5 13.49L8.9375 13.49L8.9375 17.24L9.5 17.24L10.0625 17.24L10.0625 13.49L9.5 13.49Z" fill="#626262"/>
<path d="M5.75 17.24L9.50005 14.99L13.25 17.24" stroke="#626262" stroke-width="1.125" stroke-linecap="round" stroke-linejoin="round"/>
</svg>
