<svg width="12" height="12" viewBox="0 0 12 12" fill="none" xmlns="http://www.w3.org/2000/svg">
<g clip-path="url(#clip0_208_117)">
<path d="M11.3125 9.86796L6.9821 5.53758L1.9228 0.478271H1.52741L1.44668 0.683417C1.23359 1.22489 1.14255 1.77871 1.18342 2.28492C1.23001 2.86194 1.44922 3.36151 1.81739 3.72968L5.76695 7.67924L6.28789 7.1583L9.93926 11.2412C10.3025 11.6044 10.9277 11.626 11.3125 11.2412C11.6911 10.8626 11.6911 10.2466 11.3125 9.86796Z" fill="#8B939F"/>
<path d="M3.93674 6.76447L0.843463 9.85775C0.464878 10.2363 0.464878 10.8524 0.843463 11.231C1.20311 11.5906 1.82528 11.6224 2.21668 11.231L5.30998 8.13766L3.93674 6.76447Z" fill="#8B939F"/>
<path d="M11.1307 2.317L9.37597 4.07167L8.91821 3.61392L10.6729 1.85923L10.2151 1.40149L8.46048 3.15616L8.00274 2.69841L9.75743 0.943746L9.2997 0.486023L7.01098 2.77475C6.73099 3.05474 6.56381 3.42651 6.54017 3.82161C6.53419 3.92172 6.5115 4.02018 6.47386 4.11383L7.96061 5.60059C8.05427 5.56291 8.15275 5.54024 8.25284 5.53426C8.64794 5.51069 9.01971 5.34346 9.2997 5.06347L11.5884 2.77477L11.1307 2.317Z" fill="#8B939F"/>
</g>
<defs>
<clipPath id="clip0_208_117">
<rect width="11.0435" height="11.0435" fill="white" transform="translate(0.556229 0.478271)"/>
</clipPath>
</defs>
</svg>
