<svg width="15" height="14" viewBox="0 0 15 14" fill="none" xmlns="http://www.w3.org/2000/svg">
<g clip-path="url(#clip0_1_330)">
<path d="M11.8285 3.32837C10.9283 3.32837 10.1964 4.06031 10.1964 4.96044C10.1964 5.86054 10.9283 6.59248 11.8285 6.59248C12.7286 6.59248 13.4605 5.86054 13.4605 4.96044C13.4605 4.06031 12.7286 3.32837 11.8285 3.32837Z" fill="#8B939F"/>
<path d="M7.2864 2.68555L9.01686 1.53203C9.38969 1.2837 9.49456 0.777924 9.24318 0.400408C8.99406 0.0267272 8.48747 -0.0783832 8.11156 0.174083L5.66347 1.80612C5.27009 2.0689 5.18547 2.60441 5.46342 2.97477L7.34012 5.50425L3.18121 8.27697C3.63683 8.38499 4.0697 8.58599 4.45301 8.89273C4.74386 9.12509 5.08093 9.1255 5.37145 8.89273C5.95201 8.42854 6.63971 8.1831 7.36052 8.1831C8.08133 8.1831 8.76904 8.42854 9.34919 8.89273C9.64004 9.12509 9.9771 9.1255 10.2676 8.89273C10.6322 8.60123 11.0419 8.40703 11.4727 8.29465L7.2864 2.68555Z" fill="#8B939F"/>
<path d="M14.0752 9.7294C13.9672 9.67641 13.862 9.60905 13.7629 9.52976C12.8783 8.82211 11.6621 8.82211 10.7775 9.52976C10.1894 10.0007 9.4276 10.0007 8.83948 9.52976C7.95491 8.82211 6.76594 8.82211 5.88137 9.52976C5.29325 10.0007 4.53142 10.0007 3.9433 9.52976C3.05873 8.82211 1.84297 8.82211 0.958401 9.52976C0.84921 9.61702 0.732865 9.68914 0.612956 9.74493C0.468701 9.81187 0.376648 9.95613 0.376648 10.1151V11.4525C0.580367 11.3959 0.778728 11.3055 0.957993 11.1622C1.84256 10.4537 3.05873 10.4542 3.9433 11.1618C4.53142 11.6328 5.29325 11.6328 5.88137 11.1618C6.76594 10.4542 7.95491 10.4542 8.83948 11.1618C9.4276 11.6328 10.1894 11.6328 10.7775 11.1618C11.6621 10.4542 12.8783 10.4542 13.7629 11.1618C13.9302 11.296 14.1147 11.3784 14.3036 11.4365V10.0956C14.3035 9.93975 14.2151 9.79792 14.0752 9.7294Z" fill="#8B939F"/>
<path d="M13.2528 11.7993C12.6647 11.3284 11.8757 11.3284 11.2876 11.7993C10.403 12.507 9.21403 12.507 8.32946 11.7993C7.74134 11.3284 6.97951 11.3284 6.39139 11.7993C5.50682 12.507 4.31785 12.507 3.43328 11.7993C2.84517 11.3284 2.05613 11.3284 1.46801 11.7993C1.13592 12.0645 0.762923 12.2308 0.376648 12.2983V13.5558C0.376648 13.7813 0.55915 13.9638 0.784658 13.9638H13.8955C14.121 13.9638 14.3035 13.7813 14.3035 13.5558V12.291C13.9332 12.219 13.5744 12.0562 13.2528 11.7993Z" fill="#8B939F"/>
</g>
<defs>
<clipPath id="clip0_1_330">
<rect width="13.9277" height="13.9277" fill="white" transform="translate(0.376404 0.0361328)"/>
</clipPath>
</defs>
</svg>
