<svg width="14" height="14" viewBox="0 0 14 14" fill="none" xmlns="http://www.w3.org/2000/svg">
<path d="M9.46993 1.48193H4.84578C2.8372 1.48193 1.63978 2.67936 1.63978 4.68794V9.30657C1.63978 11.3207 2.8372 12.5181 4.84578 12.5181H9.46442C11.473 12.5181 12.6704 11.3207 12.6704 9.31209V4.68794C12.6759 2.67936 11.4785 1.48193 9.46993 1.48193ZM8.6974 9.53833C8.61463 9.64317 8.49323 9.69836 8.37184 9.69836C8.28355 9.69836 8.19526 9.67076 8.118 9.61007C7.53309 9.15758 6.77711 9.15758 6.19219 9.61007C6.0101 9.74802 5.75075 9.71491 5.6128 9.53833C5.47484 9.35623 5.50795 9.09688 5.68453 8.95893C6.56191 8.28021 7.74278 8.28021 8.62015 8.95893C8.80776 9.09688 8.84087 9.35623 8.6974 9.53833ZM9.9169 7.83324C9.83413 7.93809 9.71273 7.99327 9.59133 7.99327C9.50304 7.99327 9.41475 7.96568 9.3375 7.90498C8.01316 6.88413 6.30807 6.88413 4.98374 7.90498C4.80164 8.04845 4.54229 8.01534 4.39882 7.83324C4.25535 7.65115 4.29397 7.3918 4.47055 7.25385C6.09839 5.99572 8.20629 5.99572 9.83413 7.25385C10.0217 7.3918 10.0549 7.65115 9.9169 7.83324ZM10.7943 6.12816C10.7115 6.233 10.5901 6.28818 10.4687 6.28818C10.3804 6.28818 10.2921 6.26059 10.2149 6.19989C8.35528 4.76519 5.95492 4.76519 4.10084 6.19989C3.91875 6.33784 3.6594 6.30474 3.52144 6.12816C3.38349 5.94606 3.4166 5.68671 3.59318 5.54876C5.75627 3.87678 8.55393 3.87678 10.7225 5.54876C10.9046 5.68671 10.9377 5.94606 10.7943 6.12816Z" fill="#8B939F"/>
</svg>
