<svg width="18" height="19" viewBox="0 0 18 19" fill="none" xmlns="http://www.w3.org/2000/svg">
<path d="M1.875 9.73999C1.875 6.38123 1.875 4.70185 2.91843 3.65842C3.96186 2.61499 5.64124 2.61499 9 2.61499C12.3588 2.61499 14.0381 2.61499 15.0816 3.65842C16.125 4.70185 16.125 6.38123 16.125 9.73999C16.125 13.0987 16.125 14.7781 15.0816 15.8216C14.0381 16.865 12.3588 16.865 9 16.865C5.64124 16.865 3.96186 16.865 2.91843 15.8216C1.875 14.7781 1.875 13.0987 1.875 9.73999Z" stroke="#626262" stroke-width="1.125"/>
<path d="M6 8.47516C6.86163 7.85208 7.89065 7.48999 8.99592 7.48999C10.1047 7.48999 11.1367 7.85437 12 8.48107M10.6307 10.49C10.1386 10.2172 9.58343 10.0638 8.99592 10.0638C8.41137 10.0638 7.85881 10.2157 7.36858 10.4859" stroke="#626262" stroke-width="1.125" stroke-linecap="round"/>
<path d="M9 12.74H9.00476" stroke="#626262" stroke-width="1.5" stroke-linecap="round" stroke-linejoin="round"/>
</svg>
